# xmcd CD database file
#
# Track frame offsets:
#	150
#	17497
#	36089
#	55270
#	75478
#	91840
#	107196
#	126535
#	142444
#	161271
#	182817
#	208868
#	230713
#	251105
#
# Disc length: 3616 seconds
#
# Revision: 0
# Processed by: cddbd v1.5.2PL0 Copyright (c) Steve Scherf et al.
# Submitted via: CDex 1.51
#
DISCID=c70e1e0e
DTITLE=Grupo Maniel - Tropico de Son
DYEAR=1900
DGENRE=Salsa
TTITLE0=Marietta
TTITLE1=Chan Chan
TTITLE2=Eso no es na
TTITLE3=Candela
TTITLE4=Arrullo de palmas
TTITLE5=Que siga el tren
TTITLE6=Veinte años
TTITLE7=Quien dice que no
TTITLE8=El arriero
TTITLE9=Blanco y rubio
TTITLE10=Rosa
TTITLE11=Volvi a querer
TTITLE12=Flor de ausencia
TTITLE13=Zaida
EXTD=
EXTT0=
EXTT1=
EXTT2=
EXTT3=
EXTT4=
EXTT5=
EXTT6=
EXTT7=
EXTT8=
EXTT9=
EXTT10=
EXTT11=
EXTT12=
EXTT13=
PLAYORDER=
